<?xml version="1.0" encoding="UTF-8"?>
<!DOCTYPE svg PUBLIC "-//W3C//DTD SVG 1.1//EN" "http://www.w3.org/Graphics/SVG/1.1/DTD/svg11.dtd">
<!-- Creator: CorelDRAW X6 -->
<svg xmlns="http://www.w3.org/2000/svg" xml:space="preserve" width="78px" height="63px" version="1.1" style="shape-rendering:geometricPrecision; text-rendering:geometricPrecision; image-rendering:optimizeQuality; fill-rule:evenodd; clip-rule:evenodd"
viewBox="0 0 78 63"
 xmlns:xlink="http://www.w3.org/1999/xlink">
 <defs>
  <style type="text/css">
   <![CDATA[
    .fil0 {fill:white}
   ]]>
  </style>
 </defs>
 <g id="Layer_x0020_1">
  <metadata id="CorelCorpID_0Corel-Layer"/>
  <g id="_812004720">
   <g>
    <circle class="fil0" cx="26" cy="55" r="8"/>
    <circle class="fil0" cx="60" cy="55" r="8"/>
    <path class="fil0" d="M64 0l-53 0c-3,0 -3,3 -3,3l0 5 -5 0c-2,0 -3,2 -3,3 0,2 2,3 3,3l28 2 0 0c-1,3 -9,4 -9,4l-8 0 -9 0c-2,0 -3,2 -3,3 0,2 2,3 3,3l24 1c-1,3 -6,4 -6,4l-15 1 0 16c0,3 3,4 3,4l2 0c1,-6 7,-11 13,-11 7,0 12,5 13,11l7 0c1,-6 7,-11 13,-11 7,0 12,5 13,11l2 0c3,0 3,-4 3,-4l0 -15c0,-19 -14,-34 -14,-34zm-12 24l0 -15 10 0 6 15 -16 0z"/>
   </g>
  </g>
 </g>
</svg>
